<svg width="114" height="121" viewBox="0 0 114 121" fill="none" xmlns="http://www.w3.org/2000/svg">
<rect width="114" height="121" rx="7" fill="#132027"/>
<path d="M21.251 93.87C21.4783 93.914 21.647 93.991 21.757 94.101C21.8743 94.211 21.933 94.3393 21.933 94.486C21.933 94.728 21.8633 94.904 21.724 95.014C21.592 95.124 21.3793 95.168 21.086 95.146C20.426 95.0947 19.909 95.0617 19.535 95.047C19.1683 95.025 18.6843 95.0103 18.083 95.003C17.8117 96.3523 17.5623 97.709 17.335 99.073C17.2543 99.5717 17.17 100.151 17.082 100.811C16.994 101.464 16.9353 101.992 16.906 102.395C16.8913 102.608 16.8033 102.773 16.642 102.89C16.4807 103 16.2863 103.055 16.059 103.055C15.817 103.055 15.63 102.996 15.498 102.879C15.366 102.762 15.3 102.608 15.3 102.417C15.3 102.241 15.3257 101.951 15.377 101.548C15.4357 101.137 15.5017 100.708 15.575 100.261C15.6557 99.8137 15.718 99.425 15.762 99.095C15.8427 98.5377 15.9343 97.984 16.037 97.434C16.1397 96.884 16.2423 96.3633 16.345 95.872C16.367 95.762 16.3927 95.6373 16.422 95.498C16.4513 95.3513 16.4843 95.19 16.521 95.014C15.8023 95.036 15.2377 95.0947 14.827 95.19C14.4163 95.2853 14.123 95.421 13.947 95.597C13.7783 95.7657 13.694 95.9857 13.694 96.257C13.694 96.5063 13.7673 96.7447 13.914 96.972C13.9433 97.0233 13.958 97.0783 13.958 97.137C13.958 97.2763 13.8737 97.4083 13.705 97.533C13.5437 97.6503 13.375 97.709 13.199 97.709C13.0743 97.709 12.9717 97.6723 12.891 97.599C12.7443 97.4743 12.6233 97.2983 12.528 97.071C12.4327 96.8363 12.385 96.5723 12.385 96.279C12.385 95.6557 12.5867 95.157 12.99 94.783C13.4007 94.4017 14.0203 94.123 14.849 93.947C15.685 93.771 16.7557 93.683 18.061 93.683C18.8677 93.683 19.5093 93.6977 19.986 93.727C20.47 93.7563 20.8917 93.804 21.251 93.87ZM24.8196 99.623C24.915 99.623 24.9883 99.6707 25.0396 99.766C25.091 99.8613 25.1166 99.9823 25.1166 100.129C25.1166 100.481 25.0103 100.69 24.7976 100.756C24.3576 100.91 23.8736 100.998 23.3456 101.02C23.2063 101.636 22.9313 102.131 22.5206 102.505C22.11 102.872 21.6443 103.055 21.1236 103.055C20.6836 103.055 20.306 102.949 19.9906 102.736C19.6826 102.523 19.448 102.241 19.2866 101.889C19.1253 101.537 19.0446 101.156 19.0446 100.745C19.0446 100.188 19.151 99.6927 19.3636 99.26C19.5763 98.82 19.8696 98.479 20.2436 98.237C20.6176 97.9877 21.032 97.863 21.4866 97.863C22.044 97.863 22.4913 98.0573 22.8286 98.446C23.1733 98.8273 23.375 99.3003 23.4336 99.865C23.7783 99.843 24.189 99.7697 24.6656 99.645C24.7243 99.6303 24.7756 99.623 24.8196 99.623ZM21.2116 101.889C21.4463 101.889 21.648 101.794 21.8166 101.603C21.9926 101.412 22.11 101.137 22.1686 100.778C21.9413 100.624 21.7653 100.422 21.6406 100.173C21.5233 99.9237 21.4646 99.6597 21.4646 99.381C21.4646 99.2637 21.4756 99.1463 21.4976 99.029H21.4426C21.1493 99.029 20.9036 99.172 20.7056 99.458C20.515 99.7367 20.4196 100.133 20.4196 100.646C20.4196 101.049 20.4966 101.357 20.6506 101.57C20.812 101.783 20.999 101.889 21.2116 101.889ZM29.3578 100.547C29.4532 100.547 29.5265 100.591 29.5778 100.679C29.6365 100.767 29.6658 100.888 29.6658 101.042C29.6658 101.335 29.5962 101.563 29.4568 101.724C29.1415 102.113 28.7968 102.432 28.4228 102.681C28.0488 102.93 27.6198 103.055 27.1358 103.055C25.6398 103.055 24.8918 102.003 24.8918 99.898C24.8918 99.5753 24.9028 99.249 24.9248 98.919H24.4958C24.2758 98.919 24.1255 98.8787 24.0448 98.798C23.9715 98.7173 23.9348 98.589 23.9348 98.413C23.9348 98.0023 24.0998 97.797 24.4298 97.797H25.0568C25.1815 96.9903 25.3722 96.2533 25.6288 95.586C25.8855 94.9187 26.1935 94.387 26.5528 93.991C26.9195 93.595 27.3118 93.397 27.7298 93.397C28.0378 93.397 28.2798 93.5327 28.4558 93.804C28.6318 94.0753 28.7198 94.4163 28.7198 94.827C28.7198 95.9637 28.2432 96.9537 27.2898 97.797H28.5218C28.6392 97.797 28.7235 97.8227 28.7748 97.874C28.8262 97.9253 28.8518 98.0207 28.8518 98.16C28.8518 98.666 28.4375 98.919 27.6088 98.919H26.2668C26.2522 99.2857 26.2448 99.5717 26.2448 99.777C26.2448 100.54 26.3328 101.075 26.5088 101.383C26.6922 101.691 26.9782 101.845 27.3668 101.845C27.6822 101.845 27.9608 101.75 28.2028 101.559C28.4448 101.368 28.7308 101.082 29.0608 100.701C29.1488 100.598 29.2478 100.547 29.3578 100.547ZM27.4328 94.453C27.3228 94.453 27.1982 94.5923 27.0588 94.871C26.9268 95.1423 26.7985 95.5237 26.6738 96.015C26.5565 96.499 26.4575 97.038 26.3768 97.632C26.8095 97.258 27.1322 96.84 27.3448 96.378C27.5648 95.9087 27.6748 95.4833 27.6748 95.102C27.6748 94.6693 27.5942 94.453 27.4328 94.453ZM30.1232 103.055C29.6685 103.055 29.3055 102.89 29.0342 102.56C28.7629 102.23 28.6272 101.797 28.6272 101.262C28.6272 100.675 28.7629 100.122 29.0342 99.601C29.3055 99.073 29.6649 98.6513 30.1122 98.336C30.5669 98.0133 31.0472 97.852 31.5532 97.852C31.7145 97.852 31.8209 97.885 31.8722 97.951C31.9309 98.0097 31.9785 98.1197 32.0152 98.281C32.1692 98.2517 32.3305 98.237 32.4992 98.237C32.8585 98.237 33.0382 98.3653 33.0382 98.622C33.0382 98.776 32.9832 99.1427 32.8732 99.722C32.7045 100.565 32.6202 101.152 32.6202 101.482C32.6202 101.592 32.6459 101.68 32.6972 101.746C32.7559 101.812 32.8292 101.845 32.9172 101.845C33.0565 101.845 33.2252 101.757 33.4232 101.581C33.6212 101.398 33.8889 101.104 34.2262 100.701C34.3142 100.598 34.4132 100.547 34.5232 100.547C34.6185 100.547 34.6919 100.591 34.7432 100.679C34.8019 100.767 34.8312 100.888 34.8312 101.042C34.8312 101.335 34.7615 101.563 34.6222 101.724C34.3215 102.098 34.0025 102.413 33.6652 102.67C33.3279 102.927 33.0015 103.055 32.6862 103.055C32.4442 103.055 32.2205 102.974 32.0152 102.813C31.8172 102.644 31.6669 102.417 31.5642 102.131C31.1829 102.747 30.7025 103.055 30.1232 103.055ZM30.5192 101.944C30.6805 101.944 30.8345 101.849 30.9812 101.658C31.1279 101.467 31.2342 101.214 31.3002 100.899L31.7072 98.875C31.3992 98.8823 31.1132 98.9997 30.8492 99.227C30.5925 99.447 30.3872 99.7403 30.2332 100.107C30.0792 100.474 30.0022 100.862 30.0022 101.273C30.0022 101.5 30.0462 101.669 30.1342 101.779C30.2295 101.889 30.3579 101.944 30.5192 101.944ZM37.1162 101.449C37.1968 101.376 37.2775 101.339 37.3582 101.339C37.4462 101.339 37.5158 101.39 37.5672 101.493C37.6258 101.588 37.6552 101.706 37.6552 101.845C37.6552 102.153 37.5452 102.399 37.3252 102.582C36.9438 102.897 36.5112 103.055 36.0272 103.055C35.3305 103.055 34.8208 102.765 34.4982 102.186C34.1755 101.599 34.0142 100.837 34.0142 99.898C34.0142 99.0033 34.1278 97.984 34.3552 96.84C34.5898 95.696 34.9308 94.7133 35.3782 93.892C35.8328 93.0707 36.3718 92.66 36.9952 92.66C37.3472 92.66 37.6222 92.825 37.8202 93.155C38.0255 93.4777 38.1282 93.9433 38.1282 94.552C38.1282 95.4247 37.8862 96.4367 37.4022 97.588C36.9255 98.7393 36.2728 99.876 35.4442 100.998C35.4955 101.299 35.5872 101.515 35.7192 101.647C35.8512 101.779 36.0308 101.845 36.2582 101.845C36.3828 101.845 36.5222 101.808 36.6762 101.735C36.8375 101.662 36.9842 101.566 37.1162 101.449ZM36.7532 93.749C36.5845 93.749 36.3938 94.0533 36.1812 94.662C35.9685 95.2707 35.7815 96.026 35.6202 96.928C35.4588 97.83 35.3708 98.6953 35.3562 99.524C35.8768 98.666 36.2912 97.808 36.5992 96.95C36.9072 96.0847 37.0612 95.2963 37.0612 94.585C37.0612 94.0277 36.9585 93.749 36.7532 93.749ZM42.9991 103.055C42.2805 103.055 41.7195 102.853 41.3161 102.45C40.9201 102.039 40.7221 101.5 40.7221 100.833C40.7221 100.239 40.8395 99.7183 41.0741 99.271C41.3088 98.8237 41.6131 98.479 41.9871 98.237C42.3611 97.995 42.7535 97.874 43.1641 97.874C43.5675 97.874 43.8791 97.995 44.0991 98.237C44.3265 98.4717 44.4401 98.776 44.4401 99.15C44.4401 99.458 44.3705 99.7183 44.2311 99.931C44.0991 100.144 43.9231 100.25 43.7031 100.25C43.5638 100.25 43.4501 100.217 43.3621 100.151C43.2815 100.085 43.2411 99.9933 43.2411 99.876C43.2411 99.8247 43.2485 99.766 43.2631 99.7C43.2778 99.634 43.2888 99.5863 43.2961 99.557C43.3328 99.447 43.3511 99.3443 43.3511 99.249C43.3511 99.1537 43.3255 99.0803 43.2741 99.029C43.2301 98.9777 43.1641 98.952 43.0761 98.952C42.9075 98.952 42.7498 99.029 42.6031 99.183C42.4565 99.3297 42.3391 99.5313 42.2511 99.788C42.1631 100.045 42.1191 100.327 42.1191 100.635C42.1191 101.486 42.4895 101.911 43.2301 101.911C43.5308 101.911 43.8535 101.812 44.1981 101.614C44.5501 101.409 44.8948 101.104 45.2321 100.701C45.3201 100.598 45.4191 100.547 45.5291 100.547C45.6245 100.547 45.6978 100.591 45.7491 100.679C45.8078 100.767 45.8371 100.888 45.8371 101.042C45.8371 101.321 45.7675 101.548 45.6281 101.724C45.2835 102.149 44.8691 102.479 44.3851 102.714C43.9085 102.941 43.4465 103.055 42.9991 103.055ZM50.5579 99.623C50.6533 99.623 50.7266 99.6707 50.7779 99.766C50.8293 99.8613 50.8549 99.9823 50.8549 100.129C50.8549 100.481 50.7486 100.69 50.5359 100.756C50.0959 100.91 49.6119 100.998 49.0839 101.02C48.9446 101.636 48.6696 102.131 48.2589 102.505C47.8483 102.872 47.3826 103.055 46.8619 103.055C46.4219 103.055 46.0443 102.949 45.7289 102.736C45.4209 102.523 45.1863 102.241 45.0249 101.889C44.8636 101.537 44.7829 101.156 44.7829 100.745C44.7829 100.188 44.8893 99.6927 45.1019 99.26C45.3146 98.82 45.6079 98.479 45.9819 98.237C46.3559 97.9877 46.7703 97.863 47.2249 97.863C47.7823 97.863 48.2296 98.0573 48.5669 98.446C48.9116 98.8273 49.1133 99.3003 49.1719 99.865C49.5166 99.843 49.9273 99.7697 50.4039 99.645C50.4626 99.6303 50.5139 99.623 50.5579 99.623ZM46.9499 101.889C47.1846 101.889 47.3863 101.794 47.5549 101.603C47.7309 101.412 47.8483 101.137 47.9069 100.778C47.6796 100.624 47.5036 100.422 47.3789 100.173C47.2616 99.9237 47.2029 99.6597 47.2029 99.381C47.2029 99.2637 47.2139 99.1463 47.2359 99.029H47.1809C46.8876 99.029 46.6419 99.172 46.4439 99.458C46.2533 99.7367 46.1579 100.133 46.1579 100.646C46.1579 101.049 46.2349 101.357 46.3889 101.57C46.5503 101.783 46.7373 101.889 46.9499 101.889ZM50.6918 103.055C50.4131 103.055 50.2151 102.908 50.0978 102.615C49.9878 102.322 49.9328 101.852 49.9328 101.207C49.9328 100.254 50.0685 99.348 50.3398 98.49C50.4058 98.2773 50.5121 98.1233 50.6588 98.028C50.8128 97.9253 51.0255 97.874 51.2968 97.874C51.4435 97.874 51.5461 97.8923 51.6048 97.929C51.6635 97.9657 51.6928 98.0353 51.6928 98.138C51.6928 98.2553 51.6378 98.5193 51.5278 98.93C51.4545 99.2233 51.3958 99.48 51.3518 99.7C51.3078 99.92 51.2711 100.191 51.2418 100.514C51.4838 99.8833 51.7551 99.37 52.0558 98.974C52.3565 98.578 52.6498 98.2957 52.9358 98.127C53.2291 97.9583 53.4968 97.874 53.7388 97.874C54.2155 97.874 54.4538 98.1123 54.4538 98.589C54.4538 98.875 54.3731 99.392 54.2118 100.14C54.0725 100.778 54.0028 101.2 54.0028 101.405C54.0028 101.698 54.1091 101.845 54.3218 101.845C54.4685 101.845 54.6408 101.757 54.8388 101.581C55.0441 101.398 55.3155 101.104 55.6528 100.701C55.7408 100.598 55.8398 100.547 55.9498 100.547C56.0451 100.547 56.1185 100.591 56.1698 100.679C56.2285 100.767 56.2578 100.888 56.2578 101.042C56.2578 101.335 56.1881 101.563 56.0488 101.724C55.7335 102.113 55.3925 102.432 55.0258 102.681C54.6665 102.93 54.2558 103.055 53.7938 103.055C53.4198 103.055 53.1375 102.949 52.9468 102.736C52.7561 102.516 52.6608 102.201 52.6608 101.79C52.6608 101.585 52.7121 101.218 52.8148 100.69C52.9101 100.228 52.9578 99.909 52.9578 99.733C52.9578 99.6157 52.9175 99.557 52.8368 99.557C52.7415 99.557 52.6058 99.6817 52.4298 99.931C52.2611 100.173 52.0851 100.496 51.9018 100.899C51.7258 101.302 51.5828 101.728 51.4728 102.175C51.3921 102.52 51.2968 102.754 51.1868 102.879C51.0841 102.996 50.9191 103.055 50.6918 103.055ZM60.2738 100.547C60.3692 100.547 60.4425 100.591 60.4938 100.679C60.5525 100.767 60.5818 100.888 60.5818 101.042C60.5818 101.335 60.5122 101.563 60.3728 101.724C60.0575 102.113 59.7128 102.432 59.3388 102.681C58.9648 102.93 58.5358 103.055 58.0518 103.055C56.5558 103.055 55.8078 102.003 55.8078 99.898C55.8078 99.5753 55.8188 99.249 55.8408 98.919H55.4118C55.1918 98.919 55.0415 98.8787 54.9608 98.798C54.8875 98.7173 54.8508 98.589 54.8508 98.413C54.8508 98.0023 55.0158 97.797 55.3458 97.797H55.9728C56.0975 96.9903 56.2882 96.2533 56.5448 95.586C56.8015 94.9187 57.1095 94.387 57.4688 93.991C57.8355 93.595 58.2278 93.397 58.6458 93.397C58.9538 93.397 59.1958 93.5327 59.3718 93.804C59.5478 94.0753 59.6358 94.4163 59.6358 94.827C59.6358 95.9637 59.1592 96.9537 58.2058 97.797H59.4378C59.5552 97.797 59.6395 97.8227 59.6908 97.874C59.7422 97.9253 59.7678 98.0207 59.7678 98.16C59.7678 98.666 59.3535 98.919 58.5248 98.919H57.1828C57.1682 99.2857 57.1608 99.5717 57.1608 99.777C57.1608 100.54 57.2488 101.075 57.4248 101.383C57.6082 101.691 57.8942 101.845 58.2828 101.845C58.5982 101.845 58.8768 101.75 59.1188 101.559C59.3608 101.368 59.6468 101.082 59.9768 100.701C60.0648 100.598 60.1638 100.547 60.2738 100.547ZM58.3488 94.453C58.2388 94.453 58.1142 94.5923 57.9748 94.871C57.8428 95.1423 57.7145 95.5237 57.5898 96.015C57.4725 96.499 57.3735 97.038 57.2928 97.632C57.7255 97.258 58.0482 96.84 58.2608 96.378C58.4808 95.9087 58.5908 95.4833 58.5908 95.102C58.5908 94.6693 58.5102 94.453 58.3488 94.453ZM60.4672 103.055C60.1885 103.055 59.9905 102.908 59.8732 102.615C59.7632 102.322 59.7082 101.852 59.7082 101.207C59.7082 100.254 59.8439 99.348 60.1152 98.49C60.1812 98.2773 60.2875 98.1233 60.4342 98.028C60.5882 97.9253 60.8009 97.874 61.0722 97.874C61.2189 97.874 61.3215 97.8923 61.3802 97.929C61.4389 97.9657 61.4682 98.0353 61.4682 98.138C61.4682 98.2553 61.4132 98.5193 61.3032 98.93C61.2299 99.2233 61.1712 99.48 61.1272 99.7C61.0832 99.92 61.0465 100.191 61.0172 100.514C61.2592 99.8833 61.5305 99.37 61.8312 98.974C62.1319 98.578 62.4252 98.2957 62.7112 98.127C63.0045 97.9583 63.2722 97.874 63.5142 97.874C63.9909 97.874 64.2292 98.1123 64.2292 98.589C64.2292 98.6843 64.1962 98.9153 64.1302 99.282C64.0715 99.5753 64.0422 99.7587 64.0422 99.832C64.0422 100.089 64.1339 100.217 64.3172 100.217C64.5225 100.217 64.7865 100.056 65.1092 99.733C65.2045 99.6377 65.3035 99.59 65.4062 99.59C65.5015 99.59 65.5749 99.634 65.6262 99.722C65.6849 99.8027 65.7142 99.9127 65.7142 100.052C65.7142 100.323 65.6409 100.536 65.4942 100.69C65.2889 100.903 65.0469 101.086 64.7682 101.24C64.4969 101.387 64.2072 101.46 63.8992 101.46C63.5105 101.46 63.2135 101.361 63.0082 101.163C62.8102 100.965 62.7112 100.697 62.7112 100.36C62.7112 100.25 62.7222 100.14 62.7442 100.03C62.7589 99.8833 62.7662 99.7843 62.7662 99.733C62.7662 99.6157 62.7259 99.557 62.6452 99.557C62.5352 99.557 62.3885 99.6817 62.2052 99.931C62.0292 100.173 61.8532 100.496 61.6772 100.899C61.5012 101.302 61.3582 101.728 61.2482 102.175C61.1675 102.52 61.0722 102.754 60.9622 102.879C60.8595 102.996 60.6945 103.055 60.4672 103.055ZM66.1331 97.148C65.8251 97.148 65.5941 97.0783 65.4401 96.939C65.2861 96.7923 65.2091 96.5907 65.2091 96.334C65.2091 96.0773 65.3081 95.8647 65.5061 95.696C65.7114 95.52 65.9644 95.432 66.2651 95.432C66.5364 95.432 66.7564 95.498 66.9251 95.63C67.0937 95.762 67.1781 95.949 67.1781 96.191C67.1781 96.4843 67.0827 96.719 66.8921 96.895C66.7014 97.0637 66.4484 97.148 66.1331 97.148ZM66.0451 103.055C65.5684 103.055 65.2201 102.886 65.0001 102.549C64.7874 102.212 64.6811 101.764 64.6811 101.207C64.6811 100.877 64.7214 100.455 64.8021 99.942C64.8901 99.4213 65.0001 98.9373 65.1321 98.49C65.1981 98.2553 65.2861 98.094 65.3961 98.006C65.5061 97.918 65.6821 97.874 65.9241 97.874C66.2981 97.874 66.4851 97.9987 66.4851 98.248C66.4851 98.4313 66.4154 98.8567 66.2761 99.524C66.1001 100.331 66.0121 100.877 66.0121 101.163C66.0121 101.383 66.0414 101.552 66.1001 101.669C66.1587 101.786 66.2577 101.845 66.3971 101.845C66.5291 101.845 66.6941 101.753 66.8921 101.57C67.0901 101.387 67.3541 101.097 67.6841 100.701C67.7721 100.598 67.8711 100.547 67.9811 100.547C68.0764 100.547 68.1497 100.591 68.2011 100.679C68.2597 100.767 68.2891 100.888 68.2891 101.042C68.2891 101.335 68.2194 101.563 68.0801 101.724C67.3541 102.611 66.6757 103.055 66.0451 103.055ZM73.2511 99.623C73.3464 99.623 73.4198 99.6707 73.4711 99.766C73.5224 99.8613 73.5481 99.9823 73.5481 100.129C73.5481 100.312 73.5224 100.455 73.4711 100.558C73.4198 100.653 73.3391 100.719 73.2291 100.756C72.7891 100.91 72.3051 100.998 71.7771 101.02C71.6304 101.629 71.3518 102.12 70.9411 102.494C70.5378 102.868 70.0904 103.055 69.5991 103.055C68.8584 103.055 68.3194 102.773 67.9821 102.208C67.6448 101.643 67.4761 100.826 67.4761 99.755C67.4761 98.809 67.5934 97.7823 67.8281 96.675C68.0628 95.5603 68.4038 94.6143 68.8511 93.837C69.3058 93.0523 69.8448 92.66 70.4681 92.66C70.8054 92.66 71.0768 92.8067 71.2821 93.1C71.4874 93.386 71.5901 93.76 71.5901 94.222C71.5901 94.8233 71.4764 95.421 71.2491 96.015C71.0218 96.609 70.6441 97.2323 70.1161 97.885C70.6074 97.9217 71.0071 98.127 71.3151 98.501C71.6231 98.8677 71.8064 99.3223 71.8651 99.865C72.2098 99.843 72.6204 99.7697 73.0971 99.645C73.1411 99.6303 73.1924 99.623 73.2511 99.623ZM70.2151 93.749C70.0684 93.749 69.9071 93.969 69.7311 94.409C69.5624 94.8417 69.4048 95.432 69.2581 96.18C69.1114 96.928 69.0014 97.7457 68.9281 98.633C69.4121 97.7457 69.7971 96.9647 70.0831 96.29C70.3764 95.608 70.5231 95.003 70.5231 94.475C70.5231 94.2403 70.4938 94.0607 70.4351 93.936C70.3838 93.8113 70.3104 93.749 70.2151 93.749ZM69.6431 101.889C69.8704 101.889 70.0721 101.794 70.2481 101.603C70.4241 101.412 70.5414 101.137 70.6001 100.778C70.3728 100.624 70.1968 100.422 70.0721 100.173C69.9548 99.9237 69.8961 99.6597 69.8961 99.381C69.8961 99.2783 69.9108 99.139 69.9401 98.963H69.9071C69.6064 98.963 69.3534 99.1133 69.1481 99.414C68.9501 99.7073 68.8511 100.103 68.8511 100.602C68.8511 101.02 68.9281 101.339 69.0821 101.559C69.2434 101.779 69.4304 101.889 69.6431 101.889ZM73.7203 103.055C73.3903 103.055 73.119 102.905 72.9063 102.604C72.701 102.296 72.5983 101.915 72.5983 101.46C72.5983 100.91 72.635 100.408 72.7083 99.953C72.7816 99.491 72.9026 99.0033 73.0713 98.49C73.1446 98.27 73.2473 98.1123 73.3793 98.017C73.5113 97.9217 73.7203 97.874 74.0063 97.874C74.1676 97.874 74.2776 97.8997 74.3363 97.951C74.4023 98.0023 74.4353 98.0793 74.4353 98.182C74.4353 98.2407 74.395 98.4387 74.3143 98.776C74.241 99.0473 74.1823 99.293 74.1383 99.513C73.9916 100.283 73.9183 100.796 73.9183 101.053C73.9183 101.207 73.9366 101.317 73.9733 101.383C74.01 101.442 74.0686 101.471 74.1493 101.471C74.2593 101.471 74.395 101.361 74.5563 101.141C74.725 100.921 74.901 100.587 75.0843 100.14C75.275 99.6927 75.4583 99.1427 75.6343 98.49C75.693 98.27 75.781 98.1123 75.8983 98.017C76.023 97.9217 76.2063 97.874 76.4483 97.874C76.617 97.874 76.7343 97.896 76.8003 97.94C76.8663 97.9767 76.8993 98.05 76.8993 98.16C76.8993 98.3433 76.8076 98.8457 76.6243 99.667C76.419 100.606 76.3163 101.185 76.3163 101.405C76.3163 101.544 76.3456 101.654 76.4043 101.735C76.463 101.808 76.54 101.845 76.6353 101.845C76.782 101.845 76.9543 101.757 77.1523 101.581C77.3576 101.398 77.629 101.104 77.9663 100.701C78.0543 100.598 78.1533 100.547 78.2633 100.547C78.3586 100.547 78.432 100.591 78.4833 100.679C78.542 100.767 78.5713 100.888 78.5713 101.042C78.5713 101.335 78.5016 101.563 78.3623 101.724C78.047 102.113 77.706 102.432 77.3393 102.681C76.98 102.93 76.5693 103.055 76.1073 103.055C75.7553 103.055 75.495 102.919 75.3263 102.648C75.165 102.377 75.0843 101.995 75.0843 101.504C74.9596 102.003 74.7726 102.388 74.5233 102.659C74.274 102.923 74.0063 103.055 73.7203 103.055ZM82.5854 100.547C82.6807 100.547 82.754 100.591 82.8054 100.679C82.864 100.767 82.8934 100.888 82.8934 101.042C82.8934 101.335 82.8237 101.563 82.6844 101.724C82.369 102.113 82.0244 102.432 81.6504 102.681C81.2764 102.93 80.8474 103.055 80.3634 103.055C78.8674 103.055 78.1194 102.003 78.1194 99.898C78.1194 99.5753 78.1304 99.249 78.1524 98.919H77.7234C77.5034 98.919 77.353 98.8787 77.2724 98.798C77.199 98.7173 77.1624 98.589 77.1624 98.413C77.1624 98.0023 77.3274 97.797 77.6574 97.797H78.2844C78.409 96.9903 78.5997 96.2533 78.8564 95.586C79.113 94.9187 79.421 94.387 79.7804 93.991C80.147 93.595 80.5394 93.397 80.9574 93.397C81.2654 93.397 81.5074 93.5327 81.6834 93.804C81.8594 94.0753 81.9474 94.4163 81.9474 94.827C81.9474 95.9637 81.4707 96.9537 80.5174 97.797H81.7494C81.8667 97.797 81.951 97.8227 82.0024 97.874C82.0537 97.9253 82.0794 98.0207 82.0794 98.16C82.0794 98.666 81.665 98.919 80.8364 98.919H79.4944C79.4797 99.2857 79.4724 99.5717 79.4724 99.777C79.4724 100.54 79.5604 101.075 79.7364 101.383C79.9197 101.691 80.2057 101.845 80.5944 101.845C80.9097 101.845 81.1884 101.75 81.4304 101.559C81.6724 101.368 81.9584 101.082 82.2884 100.701C82.3764 100.598 82.4754 100.547 82.5854 100.547ZM80.6604 94.453C80.5504 94.453 80.4257 94.5923 80.2864 94.871C80.1544 95.1423 80.026 95.5237 79.9014 96.015C79.784 96.499 79.685 97.038 79.6044 97.632C80.037 97.258 80.3597 96.84 80.5724 96.378C80.7924 95.9087 80.9024 95.4833 80.9024 95.102C80.9024 94.6693 80.8217 94.453 80.6604 94.453ZM83.4387 97.148C83.1307 97.148 82.8997 97.0783 82.7457 96.939C82.5917 96.7923 82.5147 96.5907 82.5147 96.334C82.5147 96.0773 82.6137 95.8647 82.8117 95.696C83.0171 95.52 83.2701 95.432 83.5707 95.432C83.8421 95.432 84.0621 95.498 84.2307 95.63C84.3994 95.762 84.4837 95.949 84.4837 96.191C84.4837 96.4843 84.3884 96.719 84.1977 96.895C84.0071 97.0637 83.7541 97.148 83.4387 97.148ZM83.3507 103.055C82.8741 103.055 82.5257 102.886 82.3057 102.549C82.0931 102.212 81.9867 101.764 81.9867 101.207C81.9867 100.877 82.0271 100.455 82.1077 99.942C82.1957 99.4213 82.3057 98.9373 82.4377 98.49C82.5037 98.2553 82.5917 98.094 82.7017 98.006C82.8117 97.918 82.9877 97.874 83.2297 97.874C83.6037 97.874 83.7907 97.9987 83.7907 98.248C83.7907 98.4313 83.7211 98.8567 83.5817 99.524C83.4057 100.331 83.3177 100.877 83.3177 101.163C83.3177 101.383 83.3471 101.552 83.4057 101.669C83.4644 101.786 83.5634 101.845 83.7027 101.845C83.8347 101.845 83.9997 101.753 84.1977 101.57C84.3957 101.387 84.6597 101.097 84.9897 100.701C85.0777 100.598 85.1767 100.547 85.2867 100.547C85.3821 100.547 85.4554 100.591 85.5067 100.679C85.5654 100.767 85.5947 100.888 85.5947 101.042C85.5947 101.335 85.5251 101.563 85.3857 101.724C84.6597 102.611 83.9814 103.055 83.3507 103.055ZM90.3148 99.623C90.4101 99.623 90.4834 99.6707 90.5348 99.766C90.5861 99.8613 90.6118 99.9823 90.6118 100.129C90.6118 100.481 90.5054 100.69 90.2928 100.756C89.8528 100.91 89.3688 100.998 88.8408 101.02C88.7014 101.636 88.4264 102.131 88.0158 102.505C87.6051 102.872 87.1394 103.055 86.6188 103.055C86.1788 103.055 85.8011 102.949 85.4858 102.736C85.1778 102.523 84.9431 102.241 84.7818 101.889C84.6204 101.537 84.5398 101.156 84.5398 100.745C84.5398 100.188 84.6461 99.6927 84.8588 99.26C85.0714 98.82 85.3648 98.479 85.7388 98.237C86.1128 97.9877 86.5271 97.863 86.9818 97.863C87.5391 97.863 87.9864 98.0573 88.3238 98.446C88.6684 98.8273 88.8701 99.3003 88.9288 99.865C89.2734 99.843 89.6841 99.7697 90.1608 99.645C90.2194 99.6303 90.2708 99.623 90.3148 99.623ZM86.7068 101.889C86.9414 101.889 87.1431 101.794 87.3118 101.603C87.4878 101.412 87.6051 101.137 87.6638 100.778C87.4364 100.624 87.2604 100.422 87.1358 100.173C87.0184 99.9237 86.9598 99.6597 86.9598 99.381C86.9598 99.2637 86.9708 99.1463 86.9928 99.029H86.9378C86.6444 99.029 86.3988 99.172 86.2008 99.458C86.0101 99.7367 85.9148 100.133 85.9148 100.646C85.9148 101.049 85.9918 101.357 86.1458 101.57C86.3071 101.783 86.4941 101.889 86.7068 101.889ZM90.4486 103.055C90.17 103.055 89.972 102.908 89.8546 102.615C89.7446 102.322 89.6896 101.852 89.6896 101.207C89.6896 100.254 89.8253 99.348 90.0966 98.49C90.1626 98.2773 90.269 98.1233 90.4156 98.028C90.5696 97.9253 90.7823 97.874 91.0536 97.874C91.2003 97.874 91.303 97.8923 91.3616 97.929C91.4203 97.9657 91.4496 98.0353 91.4496 98.138C91.4496 98.2553 91.3946 98.5193 91.2846 98.93C91.2113 99.2233 91.1526 99.48 91.1086 99.7C91.0646 99.92 91.028 100.191 90.9986 100.514C91.2406 99.8833 91.512 99.37 91.8126 98.974C92.1133 98.578 92.4066 98.2957 92.6926 98.127C92.986 97.9583 93.2536 97.874 93.4956 97.874C93.9723 97.874 94.2106 98.1123 94.2106 98.589C94.2106 98.875 94.13 99.392 93.9686 100.14C93.8293 100.778 93.7596 101.2 93.7596 101.405C93.7596 101.698 93.866 101.845 94.0786 101.845C94.2253 101.845 94.3976 101.757 94.5956 101.581C94.801 101.398 95.0723 101.104 95.4096 100.701C95.4976 100.598 95.5966 100.547 95.7066 100.547C95.802 100.547 95.8753 100.591 95.9266 100.679C95.9853 100.767 96.0146 100.888 96.0146 101.042C96.0146 101.335 95.945 101.563 95.8056 101.724C95.4903 102.113 95.1493 102.432 94.7826 102.681C94.4233 102.93 94.0126 103.055 93.5506 103.055C93.1766 103.055 92.8943 102.949 92.7036 102.736C92.513 102.516 92.4176 102.201 92.4176 101.79C92.4176 101.585 92.469 101.218 92.5716 100.69C92.667 100.228 92.7146 99.909 92.7146 99.733C92.7146 99.6157 92.6743 99.557 92.5936 99.557C92.4983 99.557 92.3626 99.6817 92.1866 99.931C92.018 100.173 91.842 100.496 91.6586 100.899C91.4826 101.302 91.3396 101.728 91.2296 102.175C91.149 102.52 91.0536 102.754 90.9436 102.879C90.841 102.996 90.676 103.055 90.4486 103.055ZM97.1707 103.297C96.7893 103.297 96.496 103.209 96.2907 103.033C96.0927 102.857 95.9937 102.659 95.9937 102.439C95.9937 102.248 96.0633 102.083 96.2027 101.944C96.342 101.805 96.5473 101.735 96.8187 101.735C96.914 101.735 97.024 101.746 97.1487 101.768C97.2807 101.783 97.3797 101.794 97.4457 101.801C97.4383 101.61 97.3943 101.431 97.3137 101.262C97.2403 101.093 97.145 100.932 97.0277 100.778C96.9103 100.617 96.8003 100.477 96.6977 100.36C96.4703 100.793 96.243 101.152 96.0157 101.438C95.7957 101.724 95.5537 101.995 95.2897 102.252C95.1577 102.384 95.0183 102.45 94.8717 102.45C94.7543 102.45 94.659 102.41 94.5857 102.329C94.5123 102.241 94.4757 102.135 94.4757 102.01C94.4757 101.863 94.527 101.728 94.6297 101.603L94.7727 101.427C95.176 100.928 95.4803 100.518 95.6857 100.195C95.8177 99.9823 95.9497 99.7293 96.0817 99.436C96.221 99.1427 96.4007 98.743 96.6207 98.237C96.76 97.9143 97.0497 97.753 97.4897 97.753C97.695 97.753 97.838 97.7713 97.9187 97.808C97.9993 97.8447 98.0397 97.9033 98.0397 97.984C98.0397 98.028 98.025 98.0977 97.9957 98.193C97.9663 98.2883 97.926 98.3837 97.8747 98.479C97.7427 98.743 97.6767 98.9667 97.6767 99.15C97.6767 99.26 97.7133 99.381 97.7867 99.513C97.8673 99.645 97.9883 99.81 98.1497 100.008C98.3843 100.316 98.5603 100.58 98.6777 100.8C98.8023 101.013 98.8647 101.247 98.8647 101.504C98.8647 101.812 98.7913 102.105 98.6447 102.384C98.5053 102.655 98.3073 102.875 98.0507 103.044C97.794 103.213 97.5007 103.297 97.1707 103.297Z" fill="#E3B365"/>
<circle cx="57.5" cy="51.5" r="36" stroke="#A12568" stroke-width="3"/>
</svg>
